<mxfile host="65bd71144e">
    <diagram id="FHtRh6rJYIu2pjZ2k7_9" name="Page-1">
        <mxGraphModel dx="1924" dy="1235" grid="0" gridSize="10" guides="1" tooltips="1" connect="1" arrows="1" fold="1" page="1" pageScale="1" pageWidth="1100" pageHeight="850" math="0" shadow="0">
            <root>
                <mxCell id="0"/>
                <mxCell id="1" parent="0"/>
                <mxCell id="3" value="Timeline" style="shape=table;startSize=68;container=1;collapsible=0;childLayout=tableLayout;fontStyle=1;align=center;pointerEvents=1;fontSize=25;" vertex="1" parent="1">
                    <mxGeometry x="256" y="90" width="607" height="628" as="geometry"/>
                </mxCell>
                <mxCell id="4" value="" style="shape=partialRectangle;html=1;whiteSpace=wrap;collapsible=0;dropTarget=0;pointerEvents=0;fillColor=none;top=0;left=0;bottom=0;right=0;points=[[0,0.5],[1,0.5]];portConstraint=eastwest;fontSize=25;" vertex="1" parent="3">
                    <mxGeometry y="68" width="607" height="186" as="geometry"/>
                </mxCell>
                <mxCell id="5" value="Layout&lt;br&gt;CSS" style="shape=partialRectangle;html=1;whiteSpace=wrap;connectable=0;fillColor=none;top=0;left=0;bottom=0;right=0;overflow=hidden;pointerEvents=1;fontSize=25;" vertex="1" parent="4">
                    <mxGeometry width="304" height="186" as="geometry">
                        <mxRectangle width="304" height="186" as="alternateBounds"/>
                    </mxGeometry>
                </mxCell>
                <mxCell id="6" value="Monday" style="shape=partialRectangle;html=1;whiteSpace=wrap;connectable=0;fillColor=none;top=0;left=0;bottom=0;right=0;overflow=hidden;pointerEvents=1;fontSize=25;" vertex="1" parent="4">
                    <mxGeometry x="304" width="303" height="186" as="geometry">
                        <mxRectangle width="303" height="186" as="alternateBounds"/>
                    </mxGeometry>
                </mxCell>
                <mxCell id="8" value="" style="shape=partialRectangle;html=1;whiteSpace=wrap;collapsible=0;dropTarget=0;pointerEvents=0;fillColor=none;top=0;left=0;bottom=0;right=0;points=[[0,0.5],[1,0.5]];portConstraint=eastwest;fontSize=25;" vertex="1" parent="3">
                    <mxGeometry y="254" width="607" height="188" as="geometry"/>
                </mxCell>
                <mxCell id="9" value="Code:&lt;br&gt;profile, menu, menu-edit, order-detail" style="shape=partialRectangle;html=1;whiteSpace=wrap;connectable=0;fillColor=none;top=0;left=0;bottom=0;right=0;overflow=hidden;pointerEvents=1;fontSize=25;" vertex="1" parent="8">
                    <mxGeometry width="304" height="188" as="geometry">
                        <mxRectangle width="304" height="188" as="alternateBounds"/>
                    </mxGeometry>
                </mxCell>
                <mxCell id="10" value="Tue" style="shape=partialRectangle;html=1;whiteSpace=wrap;connectable=0;fillColor=none;top=0;left=0;bottom=0;right=0;overflow=hidden;pointerEvents=1;fontSize=25;" vertex="1" parent="8">
                    <mxGeometry x="304" width="303" height="188" as="geometry">
                        <mxRectangle width="303" height="188" as="alternateBounds"/>
                    </mxGeometry>
                </mxCell>
                <mxCell id="12" value="" style="shape=partialRectangle;html=1;whiteSpace=wrap;collapsible=0;dropTarget=0;pointerEvents=0;fillColor=none;top=0;left=0;bottom=0;right=0;points=[[0,0.5],[1,0.5]];portConstraint=eastwest;fontSize=25;" vertex="1" parent="3">
                    <mxGeometry y="442" width="607" height="186" as="geometry"/>
                </mxCell>
                <mxCell id="13" value="Cart, Session, Authentication, Twiolio" style="shape=partialRectangle;html=1;whiteSpace=wrap;connectable=0;fillColor=none;top=0;left=0;bottom=0;right=0;overflow=hidden;pointerEvents=1;fontSize=25;" vertex="1" parent="12">
                    <mxGeometry width="304" height="186" as="geometry">
                        <mxRectangle width="304" height="186" as="alternateBounds"/>
                    </mxGeometry>
                </mxCell>
                <mxCell id="14" value="Wed-Thursday" style="shape=partialRectangle;html=1;whiteSpace=wrap;connectable=0;fillColor=none;top=0;left=0;bottom=0;right=0;overflow=hidden;pointerEvents=1;fontSize=25;" vertex="1" parent="12">
                    <mxGeometry x="304" width="303" height="186" as="geometry">
                        <mxRectangle width="303" height="186" as="alternateBounds"/>
                    </mxGeometry>
                </mxCell>
            </root>
        </mxGraphModel>
    </diagram>
</mxfile>
